<svg xmlns="http://www.w3.org/2000/svg" viewBox="0 0 287.74 247.2"><defs><style>.cls-1{fill:#fff;}</style></defs><g id="Capa_2" data-name="Capa 2"><g id="Capa_1-2" data-name="Capa 1"><path class="cls-1" d="M250.09,128.83l17.14-14c-3.06,8.27-8.72,14.33-14.71,20a25.46,25.46,0,0,0-6.87,11.18c-13.19,40.56-40,67.58-80.88,80.16-3,.92-4.12,2.13-4.64,5.18-.74,4.39-2.28,8.65-3.55,12.95-.17.56-.76,1-2.21,2.85.25-5.36,0-9.32.74-13.06.95-4.54-.77-5.26-4.72-5-11.81.71-23.56,1-35.18-2.28C88.28,219.22,68.69,202.55,55,178.55a114.24,114.24,0,0,1-6.27-12.7c-1.86-4.47-4.3-8.15-8.67-10.59a41.23,41.23,0,0,1-11.18-8.83c2.35,1.26,4.69,2.56,7.08,3.76s4.64,2.22,7.56,3.61c-2-8.76-4.33-16.88-4.51-25.31-.1-4.42-2.77-4.31-5.75-3.8-11.16,1.9-22.12-.6-33.24-1.57,8.79-3.43,18.15-4,27.34-4.85,7.12-.64,11.63-1.79,11.28-10.67-.29-7.44,1.53-15,2.48-22.93-2.82,0-4,3.8-8.12,3,13.93-8.4,15.07-24,23.1-35.54C72.19,29,94,15,121.65,10.58c6.2-1,7.78-2.38,4.54-7.83-.28-.47,0-1.29.59-2.75,1.82,10.32,9.35,8.81,16.23,9.18,15.66.85,30.84,3.93,45,10.91,1.19.59,2.67.91,3.35,3.5-9.71-3.48-18.89-6.84-28.61-8.29-8-1.2-16-.68-24.09-.69-3.3,0-3.37,1.47-2.23,4,2.86,6.46,5.74,12.93,8.21,19.54,1.21,3.22,3.26,3.36,6.07,3.35,27.35,0,54,3.56,79.15,15.16,8.32,3.83,16.51,7.84,23.5,14.31-7-2.52-14-5.06-21.07-7.55a253.48,253.48,0,0,0-76.75-14.73c-6.18-.2-6.86,1.37-5,7a225.35,225.35,0,0,1,9.59,39.07c.84,5.5,3.21,7,8.38,6.26,25.68-3.62,51.36-7.2,77-11.15a262.4,262.4,0,0,1,42.14-2.6c-5.27,5.09-10.93,6.23-16.12,8-4.88,1.7-9.92,3.43-15,3.91-6.62.62-7.19,4-6.67,9.48C250.54,115,250.09,121.41,250.09,128.83ZM158,151.29h-.21c-.67-9.19-1.74-18.37-1.89-27.56-.1-6.58-2-9.13-9-8.29-28.59,3.4-57.25,6.11-86,7.48-4.7.23-4.78,2.61-4.15,5.93a141.33,141.33,0,0,0,9.9,31.59c1.46,3.26,4,4.48,7,5.38,25.75,7.82,51.87,11.48,78.81,7.77,4.72-.65,5.94-2.39,5.71-6.7C157.81,161.7,158,156.49,158,151.29Zm-97-36.9c31.06-3.71,59.83-7.2,88.63-10.53,4.11-.48,3.62-3.06,3.11-5.59-3-15-5.66-30-9.65-44.78-.91-3.34-2.17-4.71-5.83-4.3-21.13,2.39-41.64,7-61.46,15C66.26,68.06,59.91,73.61,58.44,84c-1,7.23-2.4,14.4-3.14,21.65C54.74,111.11,53.64,117.91,61,114.39ZM248,101.19a24.23,24.23,0,0,1-3.42,1.12c-24.93,3.47-49.85,7-74.8,10.28-4,.54-6.35,1-5.65,6.3a287.27,287.27,0,0,1,2,46.64c-.16,5.09,1.35,5.09,5.61,3.9,25.73-7.16,48.79-19.56,70.36-35,2.09-1.5,4.07-3,4.64-5.91C248.53,119.65,248.58,110.77,248,101.19Zm-7.13,45.7c-21.37,17.5-45.61,28.94-72.33,35.32-2.58.61-2.43,2.38-2.63,4.28-.69,6.82-1.23,13.66-2.28,20.42-.7,4.53.33,5.31,4.79,4.14C203.33,201.9,226.7,179.76,240.91,146.89Zm-164.78,28c17.24,23.62,39.61,37.8,69.41,38.31,11.39.2,11.36.13,11.66-11.64.11-4.47.4-9,.65-13.42.16-3-.64-3.73-4.08-3.48a203.26,203.26,0,0,1-40.21-.63C100.68,182.43,88.65,178.11,76.13,174.92ZM67.41,62.26c21.92-10.44,44.5-18,68.74-19.7,3.34-.24,2.88-2.5,2.19-4.62-2.13-6.46-4.51-12.85-6.5-19.36-1.06-3.49-3.05-2.53-5.46-2C99.81,22.73,80.42,38.22,67.41,62.26Z"/></g></g></svg>