<svg width="221" height="85" viewBox="0 0 221 85" fill="none" xmlns="http://www.w3.org/2000/svg">
<path d="M120.838 12.5523C124.081 12.5523 127.339 12.5523 130.567 12.5523C131.228 12.5523 132.294 11.9851 132.414 13.4478C132.534 14.9105 131.693 14.5672 130.912 14.7015C125.597 15.5224 124.907 16.3433 124.907 21.6866V62.5672C124.907 66.5373 126.108 67.806 130.072 68.1344C130.567 68.1344 131.032 68.3732 131.573 68.403C132.579 68.403 132.489 69.1045 132.504 69.7911C132.519 70.4776 131.963 70.6269 131.363 70.6269H110.042C109.502 70.6269 108.811 70.806 108.826 69.8657C108.826 69.209 108.676 68.5075 109.697 68.3732C110.102 68.3732 110.493 68.1642 110.913 68.1045C115.763 67.4478 116.348 66.7911 116.348 61.8209V21.4926C116.348 16.7612 115.192 15.3881 110.643 14.7164C109.817 14.597 108.691 15.0597 108.811 13.4776C108.931 11.8955 110.162 12.597 110.868 12.5672C114.186 12.4776 117.519 12.5523 120.838 12.5523Z" fill="#1C2E3A"/>
<path d="M151.212 12.5523H161.212C161.963 12.5523 162.924 12.1941 162.878 13.6269C162.878 14.7911 162.158 14.6567 161.377 14.7463C156.227 15.3135 155.371 16.3433 155.371 21.4179V62.3433C155.371 66.5672 156.452 67.7463 160.596 68.1493C161.002 68.1493 161.392 68.3732 161.797 68.3881C162.623 68.3881 162.893 68.7761 162.908 69.612C162.924 70.4478 162.413 70.6418 161.677 70.6418H140.657C140.026 70.6418 139.321 70.8508 139.291 69.7463C139.26 68.6418 139.651 68.5821 140.537 68.3881C146.828 66.8955 146.813 66.8955 146.813 60.3135V21.597C146.813 16.2985 146.152 15.4776 141.002 14.7164C140.086 14.5821 139.125 14.806 139.306 13.3582C139.486 11.9105 140.567 12.5821 141.227 12.5672C144.546 12.4926 147.909 12.5523 151.212 12.5523Z" fill="#1C2E3A"/>
<path d="M214.273 63.7015C216.02 62.3172 217.234 60.3779 217.712 58.209C217.907 57.4328 218.147 56.7164 218.282 55.8806C218.372 55.3433 218.162 54.597 219.093 54.7313C220.024 54.8657 220.895 55 220.745 55.8209C220.069 59.9254 220.414 64.2687 218.282 68.0746C211.161 71.0028 203.442 72.21 195.76 71.597C183.749 70.5373 173.239 63.2239 169.725 51.0597C167.908 44.6119 167.428 38.209 169.725 31.7761C173.374 21.5821 180.881 15.4328 191.091 12.5672C200.625 9.91045 209.829 12.0448 218.853 15.2537C219.331 15.3917 219.745 15.694 220.02 16.1067C220.295 16.5195 220.413 17.0159 220.354 17.5075C220.354 20.3731 221.105 23.194 221.015 26.0746C221.015 26.806 221.105 27.5672 220.039 27.7313C218.973 27.8955 218.538 27.2388 218.267 26.4478C217.838 23.6058 216.549 20.9606 214.573 18.8629C212.597 16.7652 210.026 15.314 207.202 14.7015C203.569 13.7812 199.774 13.6953 196.103 14.4505C192.432 15.2056 188.983 16.7819 186.016 19.0597C185.715 19.3292 185.443 19.6294 185.205 19.9552C184.68 21.7612 182.893 22.597 181.677 23.8806C179.185 27.0199 177.681 30.8205 177.353 34.806C175.951 43.0978 177.858 51.606 182.668 58.5224C188.088 66.3134 197.953 70.6119 206.226 68.5522C209.402 67.9362 212.255 66.2168 214.273 63.7015Z" fill="#1C2E3A"/>
<path d="M36.3954 18.403L36.1852 18.6567C36.2381 18.6342 36.2847 18.5994 36.3213 18.5553C36.3579 18.5111 36.3833 18.4589 36.3954 18.403Z" fill="#7A8EA0"/>
<path d="M39.3833 36.3433L39.128 36.1045C39.1212 36.1839 39.1212 36.2638 39.128 36.3433H39.3833Z" fill="#7A8EA0"/>
<path d="M89.0967 33.97C93.1192 33.1494 97.0553 31.9551 100.853 30.4029C97.2646 29.97 93.7212 30.7312 90.1627 30.8357C89.1225 31.06 88.0416 31.0138 87.0247 30.7014C86.8198 30.5463 86.6465 30.3538 86.5142 30.1342H86.349C86.342 30.2286 86.342 30.3234 86.349 30.4178L83.0158 30.9402C82.8332 30.9845 82.6475 31.0144 82.4602 31.0297L67.3405 33.3133C64.5628 33.7312 61.7701 33.9999 58.9924 34.4029C57.4909 34.6118 56.7402 34.1044 56.5 32.6118C55.5477 27.0452 54.1775 21.5572 52.401 16.1939C58.9774 15.9551 76.0039 19.7014 77.5655 20.1491C78.507 20.5996 79.526 20.8681 80.5684 20.9402L83.4061 22.0745C83.4061 22.2238 83.4061 22.3581 83.4061 22.4924C83.7815 22.4924 84.1419 22.3282 84.5022 22.3432C84.6078 22.2367 84.7361 22.1551 84.8776 22.1044C86.4841 21.7163 87.4451 23.0596 88.4661 23.4029C86.4391 21.776 83.4662 21.2088 81.259 19.2835C81.1015 19.0747 80.9891 18.8359 80.9287 18.582C80.7598 18.553 80.5872 18.553 80.4182 18.582C71.7071 15.0041 62.3326 13.3 52.9115 13.582C51.9806 13.582 51.41 13.582 50.9896 12.5223C50.0737 10.1491 49.0677 7.8357 47.9867 5.52226C47.5963 4.64167 47.4762 4.1342 48.7074 4.1342C51.5268 4.04719 54.349 4.11695 57.1606 4.34316C60.7491 4.776 64.0223 6.43271 67.5207 7.08943C61.7701 3.23868 55.1937 2.47749 48.5422 2.22376C47.0408 2.22376 45.9447 2.22376 45.4492 0.611816C45.194 -0.194154 44.7585 -0.224005 44.3832 0.611816C45.1039 1.58197 46.0198 2.32823 43.7225 2.64167C39.124 3.21076 34.6916 4.71094 30.6991 7.04957C26.7067 9.38819 23.2389 12.5156 20.51 16.2387C17.2218 20.5521 16.8614 26.582 12.1018 30.0297L14.8044 28.3581C14.2108 30.9763 13.8192 33.6358 13.6333 36.3133C13.2729 40.0148 13.1978 39.8805 9.42917 40.373C6.22802 40.5553 3.06138 41.1267 0 42.0745C3.99389 42.3432 7.92771 43.3432 12.0117 42.5969C13.1678 42.3879 13.8885 42.5073 13.9185 43.9999C14.1181 47.0385 14.6723 50.0437 15.5701 52.9551L12.5672 51.2536L9.80454 50.1044C10.5102 50.776 10.6904 51.0297 10.9306 51.1342C15.1197 53.0745 17.1917 56.6864 19.1887 60.6267C21.2904 64.9214 24.2925 68.7191 27.9933 71.7646C31.6941 74.8101 36.0078 77.0328 40.6445 78.2835C44.6815 79.2556 48.8585 79.5183 52.9865 79.0596C54.5781 78.9551 55.0135 79.3133 54.6532 80.9551C54.5103 82.2896 54.5103 83.6355 54.6532 84.97C55.1036 85.0894 55.1336 84.7461 55.1787 84.5521C55.7434 83.1817 56.1611 81.7559 56.4249 80.2984C56.5901 78.8058 57.2057 78.4327 58.632 77.9849C70.2834 74.2536 79.202 67.0596 84.1569 55.8805C86.6193 50.2984 89.3069 45.0894 93.7362 40.8506C94.1266 40.4924 94.9374 40.0745 94.2016 39.1044L88.0306 44.1641C88.0306 41.0297 88.0306 38.1939 88.0306 35.4924C88.0234 35.4479 88.0234 35.4026 88.0306 35.3581C88.0029 35.0364 88.0968 34.716 88.2939 34.4593C88.491 34.2027 88.7772 34.0282 89.0967 33.97ZM24.8792 18.8058C26.015 16.9019 27.3927 15.1512 28.9782 13.5969C33.2843 9.04949 38.893 5.92835 45.0438 4.65659C45.7795 4.47749 46.1849 4.65659 46.4252 5.56704C47.0558 7.776 47.8065 9.94017 48.6323 12.0894C49.1879 13.582 48.7224 13.8805 47.251 13.9999C41.8884 14.521 36.6095 15.6888 31.5307 17.4775C29.4421 18.1235 27.4287 18.9891 25.5248 20.0596C24.5189 20.0596 24.639 19.4029 24.8792 18.8058ZM19.519 38.0447C19.4756 35.4178 19.7887 32.7972 20.4499 30.2536C20.7652 25.9103 22.4769 22.7909 27.0864 21.4178C30.1478 20.2554 33.2704 19.2589 36.4405 18.4327C37.8997 17.8608 39.4514 17.5574 41.0199 17.5372C43.3499 17.3194 45.6624 16.9454 47.9416 16.4178C48.2944 16.3376 48.6618 16.3461 49.0105 16.4425C49.3591 16.5389 49.6781 16.7202 49.9386 16.97C51.2549 20.2857 52.1038 23.7665 52.461 27.3133C52.461 27.4626 52.461 27.6118 52.5361 27.7461C53.0016 29.7461 53.422 31.7461 53.8574 33.7163C54.0826 34.7461 53.6622 35.1342 52.5812 35.2088C41.9808 36.3631 31.3855 37.582 20.7952 38.8655C19.7142 39.179 19.519 38.9999 19.519 38.0447ZM21.6511 50.3879C21.2757 48.8954 20.8253 47.4029 20.525 45.9103C19.7592 42.1342 19.7893 42.1491 23.5279 41.9402C26.9963 41.7611 30.4797 41.5223 33.948 41.3133L44.7585 40.2984C47.5362 39.9999 50.329 39.7163 53.1067 39.3581C54.3829 39.1939 54.6081 39.8655 54.7733 40.8506C55.3138 46.5223 55.5691 52.2088 55.6591 57.8954C55.6591 58.9402 55.3288 59.4775 54.1577 59.6267C45.8512 60.5397 37.4476 59.9788 29.3385 57.97C27.4135 57.6697 25.6318 56.7765 24.2446 55.4162C22.8573 54.0559 21.9345 52.2972 21.606 50.3879H21.6511ZM55.3438 68.9402C55.2237 73.6267 55.1937 73.7312 50.389 73.5223C46.3683 73.382 42.4215 72.4081 38.8016 70.6629C35.1817 68.9177 31.9687 66.4397 29.3686 63.3879C28.7079 62.6566 28.0623 61.8954 27.4167 61.1939C27.5218 60.0745 28.1524 60.4029 28.768 60.7312C35.5975 63.0754 42.8104 64.1184 50.0287 63.8058C51.8154 63.7163 54.2027 62.9252 55.2087 63.8058C56.2147 64.6864 55.4039 67.164 55.3438 68.9402ZM74.6376 64.8506C70.2874 68.6538 65.0812 71.3618 59.4578 72.7461C57.4609 73.2387 57.3858 72.8357 57.7161 71.0894C58.1366 68.8357 58.2417 66.5073 58.4368 64.2088C58.4368 63.4327 58.4368 62.8954 59.5479 62.6417C65.0667 61.3136 70.3978 59.3082 75.4184 56.6715C76.034 56.2835 85.2229 49.7909 85.2229 49.7909C83.0077 55.607 79.3697 60.7827 74.6376 64.8506ZM86.9045 43.6715C86.8101 44.1108 86.6287 44.5271 86.371 44.896C86.1132 45.265 85.7842 45.5794 85.4031 45.8208C77.7436 51.5293 69.0905 55.7846 59.8783 58.373C58.6471 58.7014 58.4669 58.5223 58.4819 57.3879C58.6603 51.5356 58.3943 45.6781 57.6861 39.8655C57.521 38.582 58.3017 38.567 59.1876 38.4626C65.749 37.6118 72.3254 36.8058 78.8717 35.8805C81.7442 35.6405 84.5887 35.1409 87.37 34.3879C87.5344 37.4901 87.3785 40.6009 86.9045 43.6715Z" fill="#7A8EA0"/>
</svg>
