<svg xmlns="http://www.w3.org/2000/svg" viewBox="0 0 146.55 56.36"><defs><style>.cls-1{fill:#fff;}</style></defs><g id="Capa_2" data-name="Capa 2"><g id="Capa_1-2" data-name="Capa 1"><path class="cls-1" d="M80.12,8.33h6.45c.44,0,1.15-.38,1.23.59s-.48.74-1,.83c-3.52.54-4,1.09-4,4.63V41.49c0,2.63.8,3.47,3.43,3.69.32,0,.63.16,1,.18.67,0,.61.46.62.92s-.36.55-.76.55H73c-.36,0-.82.12-.81-.5,0-.44-.1-.9.58-1a6.47,6.47,0,0,0,.8-.18c3.22-.44,3.61-.87,3.61-4.17V14.25c0-3.13-.77-4-3.79-4.49-.54-.08-1.29.23-1.21-.82s.89-.58,1.36-.6C75.71,8.28,77.92,8.33,80.12,8.33Z"/><path class="cls-1" d="M100.26,8.33h6.63c.5,0,1.14-.24,1.11.71,0,.77-.48.68-1,.74-3.41.38-4,1.06-4,4.42V41.34c0,2.8.72,3.58,3.47,3.85.26,0,.52.15.79.16.55,0,.73.26.74.81s-.33.68-.82.68H93.26c-.41,0-.88.14-.9-.59s.24-.77.83-.9c4.17-1,4.16-1,4.16-5.36V14.32c0-3.51-.44-4.05-3.86-4.56-.6-.09-1.24.06-1.12-.9s.84-.51,1.27-.52C95.84,8.29,98.07,8.33,100.26,8.33Z"/><path class="cls-1" d="M142.08,42.24a6.41,6.41,0,0,0,2.28-3.64c.13-.52.29-1,.38-1.54.06-.36-.08-.86.53-.77s1.2.18,1.1.73c-.45,2.72-.22,5.6-1.63,8.12a32.62,32.62,0,0,1-14.94,2.34c-8-.71-14.93-5.56-17.26-13.62-1.21-4.28-1.52-8.52,0-12.79,2.42-6.76,7.4-10.83,14.17-12.73,6.32-1.77,12.42-.35,18.4,1.78a1.37,1.37,0,0,1,1,1.49c0,1.9.5,3.77.44,5.68,0,.49.06,1-.65,1.1s-1-.33-1.17-.85a9.4,9.4,0,0,0-2.45-5,9.52,9.52,0,0,0-4.89-2.76,16.42,16.42,0,0,0-14,2.89,4.29,4.29,0,0,0-.54.59c-.34,1.2-1.53,1.76-2.34,2.61a13.36,13.36,0,0,0-2.86,7.24,21.32,21.32,0,0,0,3.52,15.73c3.59,5.16,10.14,8,15.62,6.65A9.05,9.05,0,0,0,142.08,42.24Z"/><path class="cls-1" d="M59.08,22.53a44.3,44.3,0,0,0,7.79-2.37c-2.38-.29-4.73.22-7.09.29a4.08,4.08,0,0,1-2.08-.09,1.38,1.38,0,0,1-.34-.38h-.1a.6.6,0,0,0,0,.19L55,20.52a2.25,2.25,0,0,1-.36.06l-10,1.51c-1.84.28-3.69.46-5.53.72-1,.14-1.5-.19-1.66-1.18a75.69,75.69,0,0,0-2.71-10.89c4.36-.16,15.65,2.33,16.68,2.62a5.55,5.55,0,0,0,2,.53l1.88.75v.28c.25,0,.49-.11.73-.1a.67.67,0,0,1,.25-.16c1.06-.26,1.7.63,2.38.86-1.35-1.08-3.32-1.45-4.78-2.73a1.35,1.35,0,0,1-.22-.47,1,1,0,0,0-.34,0A44.47,44.47,0,0,0,35.08,9c-.61,0-1,0-1.27-.7-.61-1.58-1.27-3.11-2-4.65-.26-.58-.34-.92.48-.92a52.29,52.29,0,0,1,5.6.14c2.38.29,4.55,1.39,6.87,1.82C41,2.15,36.6,1.65,32.19,1.48c-1,0-1.73,0-2-1.07-.17-.54-.46-.56-.71,0,.48.64,1.08,1.14-.44,1.34a22.58,22.58,0,0,0-15.39,9c-2.18,2.86-2.42,6.86-5.58,9.14l1.8-1.1A33.5,33.5,0,0,0,9,24.08c-.24,2.46-.29,2.37-2.79,2.69A26.06,26.06,0,0,0,0,27.9c2.65.18,5.26.84,8,.35.77-.14,1.25-.06,1.27.93a26.23,26.23,0,0,0,1.09,5.94L8.33,34,6.5,33.23c.47.44.59.61.75.68,2.78,1.28,4.15,3.68,5.47,6.29A22.27,22.27,0,0,0,27,51.91a23.72,23.72,0,0,0,8.18.51c1.06-.06,1.35.17,1.11,1.26a11.83,11.83,0,0,0,0,2.66c.3.08.32-.15.35-.27a14,14,0,0,0,.82-2.82c.11-1,.52-1.24,1.47-1.54,7.72-2.47,13.64-7.24,16.92-14.65,1.63-3.71,3.42-7.16,6.35-10,.26-.24.8-.52.31-1.16l-4.09,3.36V23.45a.85.85,0,0,1,.17-.6A.92.92,0,0,1,59.08,22.53ZM16.5,12.47A17,17,0,0,1,19.21,9,20.32,20.32,0,0,1,29.87,3.09c.48-.12.75,0,.91.6.42,1.47.92,2.9,1.47,4.33.36,1,.06,1.19-.92,1.27a44.12,44.12,0,0,0-10.42,2.3,20.68,20.68,0,0,0-4,1.71C16.26,13.3,16.34,12.87,16.5,12.47ZM12.94,25.23a19.21,19.21,0,0,1,.62-5.17c.21-2.88,1.34-4.95,4.4-5.86a61.2,61.2,0,0,1,6.2-2,8.78,8.78,0,0,1,3-.59,34,34,0,0,0,4.59-.74,1.48,1.48,0,0,1,1.32.36,25.42,25.42,0,0,1,1.68,6.86.7.7,0,0,0,0,.29c.31,1.33.59,2.65.88,4,.15.68-.13.94-.85,1q-10.53,1.14-21.07,2.42C13.07,26,12.94,25.86,12.94,25.23Zm1.42,8.18c-.25-1-.55-2-.75-3-.51-2.5-.49-2.49,2-2.63,2.3-.12,4.61-.28,6.91-.41l7.17-.68c1.84-.19,3.69-.38,5.53-.62.85-.11,1,.34,1.11,1,.36,3.76.53,7.53.59,11.3,0,.69-.22,1-1,1.15a47.26,47.26,0,0,1-16.46-1.1,6.2,6.2,0,0,1-3.37-1.69,6.07,6.07,0,0,1-1.75-3.34ZM36.7,45.71c-.08,3.11-.1,3.18-3.29,3A19.15,19.15,0,0,1,19.47,42c-.43-.48-.86-1-1.29-1.45.07-.74.49-.53.9-.31a38.1,38.1,0,0,0,14.09,2c1.19-.06,2.77-.58,3.44,0S36.74,44.54,36.7,45.71ZM49.49,43a24,24,0,0,1-10.07,5.24c-1.32.32-1.37.06-1.15-1.1.28-1.49.35-3,.48-4.56,0-.52,0-.87.73-1a45.51,45.51,0,0,0,10.53-4c.41-.26,6.5-4.56,6.5-4.56A24.79,24.79,0,0,1,49.49,43Zm8.13-14a2.21,2.21,0,0,1-1,1.42A51.76,51.76,0,0,1,39.7,38.71c-.81.22-.93.1-.92-.66a76.33,76.33,0,0,0-.53-11.61c-.11-.85.41-.86,1-.93,4.35-.57,8.71-1.1,13-1.72a31.61,31.61,0,0,0,5.63-1A29.54,29.54,0,0,1,57.62,29Z"/></g></g></svg>